<svg width="19" height="19" viewBox="0 0 19 19" fill="none" xmlns="http://www.w3.org/2000/svg">
<path d="M9.377 18.75C7.83513 18.7503 6.31698 18.3704 4.95705 17.6438C3.59711 16.9171 2.43739 15.8663 1.58061 14.5844C0.723837 13.3025 0.196464 11.8291 0.0452162 10.2946C-0.106032 8.76019 0.123515 7.21214 0.71352 5.78761C1.30352 4.36309 2.23577 3.10608 3.42767 2.12794C4.61957 1.14981 6.03432 0.480743 7.54658 0.180029C9.05884 -0.120685 10.6219 -0.0437657 12.0974 0.403972C13.5728 0.851709 14.915 1.65644 16.0051 2.74688C16.11 2.85139 16.1932 2.97558 16.25 3.11233C16.3068 3.24908 16.336 3.39568 16.336 3.54375C16.336 3.69182 16.3068 3.83843 16.25 3.97517C16.1932 4.11192 16.11 4.23611 16.0051 4.34063C15.7917 4.54795 15.5058 4.66392 15.2083 4.66392C14.9107 4.66392 14.6248 4.54795 14.4114 4.34063C13.753 3.67543 12.9688 3.14798 12.1044 2.78904C11.2401 2.43011 10.3129 2.24686 9.377 2.25C8.0161 2.25096 6.68393 2.64164 5.53807 3.37585C4.39221 4.11006 3.48058 5.15708 2.91102 6.39306C2.34146 7.62905 2.13778 9.0023 2.32409 10.3504C2.51039 11.6985 3.07888 12.965 3.96232 14.0002C4.84575 15.0354 6.00718 15.7959 7.30922 16.1918C8.61127 16.5877 9.99946 16.6025 11.3096 16.2343C12.6198 15.8661 13.7971 15.1304 14.7023 14.1142C15.6075 13.098 16.2027 11.8438 16.4176 10.5H9.377C9.07864 10.5 8.79249 10.3815 8.58151 10.1705C8.37053 9.95952 8.252 9.67337 8.252 9.375C8.252 9.07663 8.37053 8.79048 8.58151 8.57951C8.79249 8.36853 9.07864 8.25 9.377 8.25H17.627C17.9254 8.25 18.2115 8.36853 18.4225 8.57951C18.6335 8.79048 18.752 9.07663 18.752 9.375C18.747 11.8599 17.7577 14.2416 16.0007 15.9987C14.2436 17.7557 11.8619 18.745 9.377 18.75Z" fill="black"/>
</svg>
